<svg width="161" height="56" viewBox="0 0 161 56" fill="none" xmlns="http://www.w3.org/2000/svg">
<g clip-path="url(#clip0)">
<path d="M79.127 54.8336V32.5213H85.3032V54.8336H79.127Z" fill="white"/>
<path d="M90.1253 43.6843C90.1196 42.1343 90.4351 40.6 91.0518 39.1779C91.6409 37.7924 92.4957 36.5358 93.568 35.479C94.6706 34.4119 95.9715 33.571 97.3973 33.0039C100.46 31.7839 103.874 31.7839 106.936 33.0039C108.352 33.5679 109.642 34.4042 110.736 35.4653C111.799 36.5192 112.642 37.7733 113.218 39.155C113.827 40.5904 114.138 42.1343 114.133 43.6934C114.141 45.244 113.83 46.7797 113.218 48.2044C112.629 49.5907 111.774 50.8481 110.701 51.9056C109.602 52.9699 108.305 53.8091 106.884 54.3761C105.13 55.0745 103.245 55.3794 101.362 55.2691C99.4776 55.1588 97.641 54.6361 95.9813 53.7379C94.1881 52.7477 92.697 51.2899 91.6666 49.5195C90.6362 47.7492 90.1051 45.7325 90.1299 43.6843H90.1253ZM96.4571 43.6843C96.4275 45.2584 97.0079 46.783 98.0767 47.9391C98.5888 48.5146 99.2203 48.9715 99.927 49.2781C100.634 49.5847 101.399 49.7335 102.169 49.7142C103.847 49.7142 105.211 49.1301 106.261 47.9619C107.291 46.7777 107.855 45.2599 107.849 43.6909C107.843 42.1218 107.268 40.6083 106.229 39.4318C105.714 38.8539 105.078 38.3955 104.367 38.0886C103.656 37.7816 102.886 37.6334 102.112 37.6544C101.346 37.6314 100.585 37.7765 99.8812 38.0797C99.1777 38.3828 98.5492 38.8366 98.0401 39.409C96.9837 40.5783 96.417 42.1089 96.4571 43.6843Z" fill="white"/>
<path d="M119.46 54.8336V32.5213H125.234L134.398 44.3157V32.5213H140.514V54.8336H135.114L125.575 42.6046V54.8336H119.46Z" fill="white"/>
<path d="M38.8258 40.6396V45.2009C38.8258 46.7412 38.4598 47.8979 37.7278 48.6711C36.9958 49.4442 35.9786 49.8323 34.6763 49.8354C33.38 49.8354 32.3651 49.432 31.6316 48.6253C30.8981 47.8186 30.5321 46.6245 30.5336 45.0431V32.5236H24.2155V45.1575C24.2155 48.6009 25.1259 51.1774 26.9468 52.8869C28.7676 54.5965 31.3251 55.452 34.6191 55.4535C36.0912 55.474 37.5576 55.2648 38.9653 54.8336C40.1911 54.4513 41.3211 53.8118 42.2799 52.9578C43.2487 52.0621 43.9811 50.9407 44.4119 49.6936C44.9298 48.184 45.1791 46.5953 45.1484 44.9996V40.6396H38.8258Z" fill="white"/>
<path d="M45.0867 32.5236H38.7914V38.8188H45.0867V32.5236Z" fill="white"/>
<path d="M8.14355 1.37286V6.86973H8.14813V23.9597H14.4022V6.86973H21.1915V1.37286H8.14355Z" fill="white"/>
<path d="M6.31808 1.37286H0V7.69095H6.31808V1.37286Z" fill="white"/>
<path d="M51.3751 54.8336V32.5213H57.1487L66.3125 44.3157V32.5213H72.4201V54.8336H67.0262L57.4896 42.6046V54.8336H51.3751Z" fill="white"/>
<path d="M23.575 23.6875V1.19215H34.1867C37.4502 1.19215 39.8864 2.00193 41.4953 3.62148C42.8205 4.95738 43.4832 6.74545 43.4832 8.98568C43.4832 10.6327 43.0783 12.0303 42.2685 13.1787C41.4165 14.3622 40.2444 15.278 38.8899 15.8184L44.254 23.6875H37.0667L32.5329 16.8524H29.8039V23.692L23.575 23.6875ZM29.8039 12.0006H33.9214C34.9782 12.0006 35.7994 11.7612 36.385 11.2823C36.6757 11.0419 36.9064 10.7371 37.0589 10.3921C37.2114 10.0471 37.2814 9.67128 37.2634 9.29449C37.2634 8.43897 36.9683 7.78779 36.3782 7.34096C35.788 6.89414 34.9592 6.66996 33.8917 6.66844H29.8039V12.0006Z" fill="white"/>
<path d="M45.2651 23.6874L54.772 1.2173H60.7195L70.2126 23.6874H63.5789L61.9456 19.7049H53.356L51.7685 23.6874H45.2651ZM55.1769 14.8966H60.1865L57.6977 8.54646L55.1769 14.8966Z" fill="white"/>
<path d="M72.9599 23.6874V1.37514H81.5701C83.3759 1.35094 85.1731 1.62691 86.8885 2.19178C88.3555 2.66823 89.7061 3.44756 90.8527 4.47928C91.9102 5.46252 92.7428 6.66262 93.2935 7.99746C93.877 9.42172 94.1679 10.9488 94.149 12.4878C94.1646 14.0161 93.8713 15.5318 93.2866 16.9439C92.7269 18.2882 91.8871 19.4977 90.823 20.4918C89.6641 21.5451 88.2973 22.3438 86.8107 22.8365C85.0835 23.4205 83.2696 23.7067 81.4465 23.6829L72.9599 23.6874ZM79.1362 18.2569H81.6524C83.5312 18.2569 85.0249 17.7544 86.1336 16.7494C87.2423 15.7445 87.7974 14.3354 87.7989 12.5221C87.7989 10.7516 87.2415 9.35624 86.1268 8.33601C85.012 7.31578 83.5205 6.80567 81.6524 6.80567H79.1362V18.2569Z" fill="white"/>
<path d="M97.9028 23.6875V1.37517H115.844V6.63643H104.017V10.0128H114.723V14.8989H104.017V18.4308H115.999V23.692L97.9028 23.6875Z" fill="white"/>
<path d="M119.659 23.7652V1.29739H130.257C133.519 1.29739 135.953 2.10641 137.559 3.72443C138.881 5.06034 139.543 6.84687 139.545 9.08405C139.545 10.728 139.14 12.1241 138.33 13.2725C137.479 14.4546 136.309 15.3689 134.956 15.9077L140.315 23.7675H133.135L128.606 16.937H125.881V23.7675L119.659 23.7652ZM125.881 12.099H129.985C131.04 12.099 131.861 11.8596 132.446 11.3807C132.736 11.1408 132.966 10.8367 133.119 10.4925C133.271 10.1482 133.34 9.77333 133.323 9.39744C133.323 8.54192 133.027 7.89074 132.437 7.44391C131.847 6.99709 131.02 6.77291 129.955 6.77139H125.881V12.099Z" fill="white"/>
<path d="M141.526 20.3729L144.98 16.2554C147.214 18.0396 149.629 18.9318 152.226 18.9318C153.044 18.9318 153.67 18.7945 154.104 18.52C154.31 18.3991 154.48 18.2247 154.595 18.0152C154.709 17.8058 154.765 17.5692 154.756 17.3305C154.756 16.8532 154.5 16.4643 153.988 16.1639C153.475 15.8635 152.484 15.5417 151.014 15.1986C150.259 15.0224 149.603 14.8577 149.045 14.709C148.486 14.5603 147.901 14.3682 147.272 14.1394C146.719 13.9459 146.183 13.7064 145.67 13.4235C145.217 13.1632 144.788 12.8615 144.389 12.5222C143.997 12.1966 143.66 11.8105 143.39 11.3784C143.123 10.9291 142.921 10.4448 142.788 9.93958C142.632 9.35089 142.555 8.74388 142.559 8.13475C142.533 7.15407 142.73 6.18024 143.137 5.28749C143.544 4.39475 144.149 3.60665 144.906 2.98329C146.473 1.65654 148.577 0.9924 151.22 0.990875C154.88 0.990875 157.941 1.97679 160.404 3.94861L157.3 8.32003C155.215 6.85756 153.137 6.12632 151.064 6.12632C150.34 6.12632 149.786 6.26357 149.404 6.53807C149.225 6.65597 149.079 6.81681 148.979 7.00584C148.878 7.19488 148.827 7.40607 148.829 7.62006C148.829 7.87353 148.901 8.12193 149.037 8.33566C149.173 8.54939 149.368 8.71945 149.598 8.82557C150.11 9.11227 151.137 9.43176 152.677 9.78404C153.86 10.0309 155.024 10.3612 156.161 10.7722C157.076 11.1068 157.945 11.559 158.743 12.1173C159.472 12.6162 160.06 13.2935 160.452 14.0845C160.842 14.9356 161.034 15.864 161.013 16.7998C161.013 19.0522 160.192 20.8266 158.551 22.1228C156.91 23.4191 154.72 24.0672 151.979 24.0672C150.029 24.0781 148.091 23.7603 146.247 23.127C144.504 22.5348 142.899 21.5982 141.526 20.3729Z" fill="white"/>
</g>
<defs>
<clipPath id="clip0">
<rect width="161" height="56" fill="white"/>
</clipPath>
</defs>
</svg>
