<?xml version="1.0" encoding="utf-8"?>
<!-- Generator: Adobe Illustrator 17.0.0, SVG Export Plug-In . SVG Version: 6.00 Build 0)  -->
<!DOCTYPE svg PUBLIC "-//W3C//DTD SVG 1.1//EN" "http://www.w3.org/Graphics/SVG/1.1/DTD/svg11.dtd">
<svg version="1.1" id="Слой_1" xmlns="http://www.w3.org/2000/svg" xmlns:xlink="http://www.w3.org/1999/xlink" x="0px" y="0px"
	 width="114px" height="61px" viewBox="0 0 114 61" enable-background="new 0 0 114 61" xml:space="preserve">
<g>
	<path fill="#71B219" d="M78.672,18.342v6.205c0,2.095-0.498,3.669-1.494,4.721c-0.996,1.052-2.38,1.58-4.151,1.584
		c-1.763,0-3.144-0.549-4.142-1.646c-0.998-1.098-1.496-2.722-1.494-4.873V7.301h-8.595v17.187c0,4.685,1.238,8.19,3.716,10.515
		c2.477,2.326,5.956,3.489,10.437,3.492c2.003,0.028,3.998-0.257,5.913-0.843c1.668-0.52,3.205-1.39,4.509-2.552
		c1.318-1.219,2.314-2.744,2.9-4.441c0.705-2.054,1.044-4.215,1.002-6.386v-5.931L78.672,18.342L78.672,18.342z"/>
	<rect x="78.625" y="7.301" fill="#539100" width="8.564" height="8.564"/>
	<polygon fill="#71B219" points="37.802,7.536 37.802,15.014 37.809,15.014 37.809,38.263 46.317,38.263 46.317,15.014 
		55.553,15.014 55.553,7.536 	"/>
	<rect x="26.724" y="7.536" fill="#539100" width="8.595" height="8.595"/>
</g>
<g>
	<path d="M31.213,45.201c0.29,0,0.53,0.021,0.721,0.063l-0.161,2.003c-0.173-0.047-0.383-0.07-0.63-0.07
		c-0.682,0-1.213,0.175-1.593,0.525c-0.38,0.35-0.57,0.84-0.57,1.471v3.983h-2.136v-7.828h1.618l0.315,1.316h0.105
		c0.243-0.438,0.571-0.792,0.984-1.061S30.728,45.201,31.213,45.201z"/>
	<path d="M36.898,53.315c-1.26,0-2.245-0.348-2.955-1.043s-1.064-1.681-1.064-2.954c0-1.313,0.328-2.326,0.984-3.043
		c0.656-0.716,1.563-1.074,2.72-1.074c1.106,0,1.967,0.314,2.583,0.945c0.616,0.63,0.924,1.5,0.924,2.611v1.036h-5.048
		c0.023,0.606,0.203,1.081,0.539,1.422c0.336,0.34,0.808,0.511,1.415,0.511c0.471,0,0.917-0.049,1.337-0.147
		c0.42-0.098,0.859-0.254,1.316-0.469v1.652c-0.374,0.187-0.772,0.325-1.197,0.417C38.028,53.271,37.51,53.315,36.898,53.315z
		 M36.597,46.721c-0.453,0-0.808,0.144-1.064,0.431c-0.257,0.287-0.404,0.694-0.441,1.222h2.997
		c-0.01-0.527-0.147-0.935-0.413-1.222C37.41,46.864,37.05,46.721,36.597,46.721z"/>
	<path d="M47.289,50.852c0,0.803-0.279,1.414-0.837,1.834s-1.392,0.63-2.503,0.63c-0.569,0-1.055-0.038-1.457-0.115
		c-0.401-0.077-0.777-0.19-1.127-0.34v-1.764c0.396,0.187,0.844,0.343,1.341,0.469s0.935,0.189,1.313,0.189
		c0.775,0,1.163-0.225,1.163-0.673c0-0.168-0.052-0.305-0.154-0.409c-0.103-0.105-0.28-0.225-0.532-0.357
		c-0.252-0.133-0.588-0.288-1.008-0.466c-0.603-0.252-1.044-0.485-1.327-0.7c-0.282-0.214-0.488-0.46-0.616-0.738
		c-0.129-0.277-0.193-0.619-0.193-1.025c0-0.695,0.27-1.233,0.809-1.614c0.539-0.38,1.304-0.57,2.293-0.57
		c0.943,0,1.86,0.205,2.752,0.616l-0.644,1.54c-0.392-0.168-0.759-0.306-1.1-0.413s-0.688-0.161-1.043-0.161
		c-0.63,0-0.945,0.171-0.945,0.512c0,0.191,0.102,0.356,0.305,0.497c0.203,0.14,0.647,0.348,1.333,0.623
		c0.612,0.247,1.06,0.479,1.344,0.692c0.285,0.215,0.495,0.463,0.63,0.742C47.221,50.13,47.289,50.464,47.289,50.852z"/>
	<path d="M52.498,53.315c-1.26,0-2.245-0.348-2.955-1.043s-1.064-1.681-1.064-2.954c0-1.313,0.328-2.326,0.984-3.043
		c0.656-0.716,1.563-1.074,2.72-1.074c1.106,0,1.967,0.314,2.583,0.945c0.616,0.63,0.924,1.5,0.924,2.611v1.036h-5.048
		c0.023,0.606,0.203,1.081,0.539,1.422c0.336,0.34,0.808,0.511,1.415,0.511c0.471,0,0.917-0.049,1.337-0.147
		c0.42-0.098,0.859-0.254,1.316-0.469v1.652c-0.374,0.187-0.772,0.325-1.197,0.417C53.627,53.271,53.109,53.315,52.498,53.315z
		 M52.196,46.721c-0.453,0-0.808,0.144-1.064,0.431c-0.257,0.287-0.404,0.694-0.441,1.222h2.997
		c-0.01-0.527-0.147-0.935-0.413-1.222C53.009,46.864,52.649,46.721,52.196,46.721z"/>
	<path d="M62.398,53.176l-0.414-1.064h-0.057c-0.359,0.453-0.729,0.767-1.109,0.942c-0.381,0.175-0.877,0.262-1.488,0.262
		c-0.75,0-1.342-0.214-1.774-0.644c-0.432-0.43-0.648-1.041-0.648-1.835c0-0.83,0.291-1.443,0.872-1.838
		c0.582-0.395,1.458-0.612,2.628-0.654l1.359-0.042V47.96c0-0.794-0.406-1.19-1.219-1.19c-0.625,0-1.361,0.188-2.205,0.567
		l-0.708-1.442c0.901-0.472,1.901-0.707,2.997-0.707c1.051,0,1.855,0.229,2.416,0.686c0.561,0.458,0.84,1.153,0.84,2.087v5.216
		H62.398z M61.768,49.549l-0.826,0.028c-0.621,0.019-1.084,0.131-1.387,0.336S59.1,50.432,59.1,50.852
		c0,0.602,0.346,0.903,1.037,0.903c0.494,0,0.889-0.143,1.186-0.428c0.297-0.284,0.445-0.662,0.445-1.134V49.549z"/>
	<path d="M70.456,45.201c0.289,0,0.529,0.021,0.721,0.063l-0.16,2.003c-0.173-0.047-0.383-0.07-0.631-0.07
		c-0.682,0-1.212,0.175-1.593,0.525c-0.38,0.35-0.57,0.84-0.57,1.471v3.983h-2.136v-7.828h1.617l0.315,1.316h0.104
		c0.243-0.438,0.571-0.792,0.984-1.061S69.971,45.201,70.456,45.201z"/>
	<path d="M75.777,53.315c-2.437,0-3.654-1.337-3.654-4.012c0-1.33,0.331-2.347,0.994-3.049c0.662-0.702,1.612-1.054,2.85-1.054
		c0.905,0,1.718,0.178,2.437,0.532l-0.631,1.652c-0.336-0.136-0.648-0.246-0.938-0.333c-0.29-0.086-0.579-0.129-0.868-0.129
		c-1.111,0-1.667,0.788-1.667,2.366c0,1.531,0.556,2.297,1.667,2.297c0.41,0,0.791-0.056,1.141-0.165
		c0.351-0.109,0.7-0.281,1.051-0.515v1.827c-0.346,0.22-0.694,0.371-1.047,0.455S76.314,53.315,75.777,53.315z"/>
	<path d="M87.197,53.176h-2.136v-4.572c0-1.129-0.42-1.694-1.26-1.694c-0.598,0-1.029,0.203-1.295,0.609
		c-0.267,0.406-0.399,1.064-0.399,1.975v3.683h-2.136V42.281h2.136v2.22c0,0.173-0.017,0.579-0.049,1.218l-0.05,0.631h0.112
		c0.477-0.766,1.232-1.148,2.269-1.148c0.92,0,1.617,0.247,2.094,0.742c0.476,0.495,0.714,1.204,0.714,2.128V53.176z"/>
</g>
</svg>
